<svg width="195" height="52" xmlns="http://www.w3.org/2000/svg" version="1.1">
 <g>
  <title>Layer 1</title>
  <g fill-rule="evenodd" id="Page-1">
   <g id="header-left">
    <g id="Menu-principal">
     <g id="logo">
      <path fill="white" id="imagotipo" d="m37.65722,21.08941c-1.64574,1.6429 -4.90846,4.75031 -7.52521,7.33959c-6.17781,5.6206 -6.27657,9.24308 -5.94434,10.9401c-4.54765,-5.31643 -0.94089,-9.30044 1.37239,-11.55644c1.06104,-1.04035 7.61524,-7.46385 9.11618,-8.89057c5.30778,-5.04886 5.30624,-6.56002 5.30624,-6.56002c2.01716,4.74776 -0.68106,7.08717 -2.32526,8.72734l0,0zm-0.15747,7.87848c-1.61544,1.57567 -0.9669,0.94469 -3.58417,3.49873c-4.25701,4.14367 -4.28114,6.90248 -4.28114,6.90248c-2.37592,-2.59541 -0.91761,-6.9098 1.63752,-9.39865c1.06122,-1.03677 3.0373,-2.90077 4.44495,-4.23082c2.87606,-2.7149 3.77433,-3.50962 4.18136,-4.55694c1.10109,4.55149 -1.31848,6.63558 -2.39852,7.7852l0,0zm-17.6189,-3.27813c1.17932,-1.13549 8.68638,-8.48189 10.11954,-9.86862c4.6512,-4.50435 4.44186,-5.91865 4.44186,-5.91865c2.00844,4.74725 -0.74439,7.34147 -2.39988,8.96955c-1.80355,1.77447 -6.36866,6.23797 -8.99841,8.81023c-6.60333,6.45823 -4.23665,11.68564 -4.23665,11.68564c-4.19265,-3.0909 -3.25228,-9.47406 1.07354,-13.67815l0,0zm-2.74084,-5.06895c1.18702,-1.16613 7.56475,-7.38895 9.7238,-9.47848c4.53396,-4.3898 4.27105,-6.1338 4.4761,-7.04819c3.17594,3.24103 1.22656,6.52955 -0.4962,8.23747c-1.50915,1.49634 -8.59104,8.61108 -11.47002,11.22231c-0.73343,0.66554 -5.5012,5.01533 -5.19053,9.04683c-2.66074,-3.35133 -1.94511,-7.59865 2.95685,-11.97994l0,0zm-5.82949,-1.77872c1.06874,-1.1069 9.17625,-8.97364 10.55087,-10.34998c3.35395,-3.34911 2.69069,-6.04937 2.69069,-6.04937c3.8813,2.93736 2.45397,6.10911 0.34814,8.13754c-1.70855,1.65447 -7.76295,7.71083 -10.55976,10.37807c-4.43896,4.24188 -3.89997,7.74486 -3.06024,10.74265c-3.25279,-3.32136 -4.72908,-7.92767 0.0303,-12.85891l0,0zm13.39612,-17.44719c-13.40519,0 -24.27186,10.80632 -24.27186,24.1369c0,12.30862 9.2656,22.46472 21.23952,23.94898l0,-3.41702c-4.0006,-0.59813 -7.99231,-1.94571 -10.65236,-5.5755l27.36872,0c-2.66057,3.62979 -6.65176,4.97737 -10.65237,5.5755l0,3.41702c11.97392,-1.48426 21.23952,-11.64036 21.23952,-23.94898c0,-13.33058 -10.86701,-24.1369 -24.27117,-24.1369l0,0z"/>
      <g id="texto">
       <path fill="white" id="Fill-2" d="m71.87112,16.13093c1.16648,0 2.28127,-0.0257 3.47291,-0.07625c0.40583,0 0.55782,-0.1006 0.55782,-0.504c0,-1.28562 -0.65949,-2.54554 -1.79961,-2.54554c-1.03965,0 -2.00262,1.13379 -2.23112,3.12579l0,0zm6.69215,4.93976c-1.54595,2.14247 -3.44723,2.64647 -4.41088,2.64647c-3.2694,0 -5.11934,-2.4955 -5.11934,-5.39371c0,-1.86588 0.7343,-3.4281 1.79962,-4.48682c1.08997,-1.13379 2.48375,-1.81464 3.80154,-1.81464l0.02568,0c2.25576,0 4.00454,1.94077 4.00454,3.95779c0,0.50349 -0.15199,0.78077 -0.68465,0.88137c-0.43031,0.05055 -3.54788,0.30229 -6.23498,0.4034c0.076,2.97464 1.74878,4.36086 3.54839,4.36086c0.98864,0 1.95161,-0.35302 2.83909,-1.15949l0.43099,0.60477l0,0z"/>
       <path fill="white" id="Fill-3" d="m89.63979,21.04566c-1.14081,1.56222 -2.8141,2.6715 -4.33404,2.6715c-3.37124,0 -5.34869,-2.59592 -5.34869,-5.31814c0,-1.89022 0.91264,-3.62996 2.55975,-4.86486c1.5213,-1.13379 3.14308,-1.51217 4.10673,-1.51217l0.02499,0c0.93781,0 1.77463,0.30281 2.20493,0.63013c0.35534,0.27744 0.45649,0.52919 0.45649,0.88204c-0.02499,0.65583 -0.63313,1.2606 -1.0138,1.2606c-0.15199,0 -0.3045,-0.07558 -0.53266,-0.27796c-0.9378,-0.83132 -1.77377,-1.20936 -2.55958,-1.20936c-1.24179,0 -2.48358,1.1343 -2.48358,3.80596c0,3.40256 2.40758,4.51201 3.62421,4.51201c1.06481,0 1.82478,-0.27694 2.83858,-1.15949l0.45667,0.57974"/>
       <path fill="white" id="Fill-4" d="m97.57322,23.41486l0,-0.75575c1.21663,-0.15183 1.36863,-0.27795 1.36863,-2.04204l0,-4.25941c0,-1.78962 -0.75997,-2.54673 -1.95161,-2.54673c-0.78513,0 -1.49495,0.40357 -2.20545,0.95813l0,6.02486c0,1.61277 0.15285,1.71336 1.34313,1.86519l0,0.75575l-5.87948,0l0,-0.75575c1.62195,-0.20238 1.74878,-0.27795 1.74878,-1.94145l0,-5.21703c0,-1.53787 -0.12683,-1.63847 -1.41963,-1.89089l0,-0.65515c1.34295,-0.20171 2.83926,-0.52971 4.2072,-0.98333l0,1.91643c0.50699,-0.35353 1.03965,-0.75693 1.62246,-1.13481c0.73498,-0.47915 1.29212,-0.73089 2.02778,-0.73089c2.0276,0 3.29524,1.4623 3.29524,3.95779l0,4.81414c0,1.61277 0.152,1.68851 1.5213,1.86519l0,0.75575l-5.67835,0"/>
       <path fill="white" id="Fill-5" d="m107.4331,17.2397c0,3.12511 1.14064,5.54486 2.91509,5.54486c1.19164,0 2.30592,-0.8063 2.30592,-4.43609c0,-3.27694 -1.01312,-5.39388 -2.86357,-5.39388c-1.2168,0 -2.35744,1.41106 -2.35744,4.28511l0,0zm8.38993,0.42843c0,4.05839 -2.94025,6.04903 -5.75367,6.04903c-3.80222,0 -5.80467,-2.82281 -5.80467,-5.59559c0,-4.08324 3.21925,-6.09958 5.90583,-6.09958c3.37107,0 5.65251,2.59609 5.65251,5.64614l0,0z"/>
       <path fill="white" id="Fill-6" d="m116.53284,23.41486l0,-0.75575c1.54595,-0.20238 1.72362,-0.328 1.72362,-1.96647l0,-11.67032c0,-1.61277 -0.12751,-1.66332 -1.62246,-1.83983l0,-0.68068c1.41963,-0.15115 3.19409,-0.52886 4.4102,-0.88188l0,15.07271c0,1.68852 0.17767,1.81464 1.7493,1.96647l0,0.75575l-6.26066,0"/>
       <path fill="white" id="Fill-7" d="m128.59817,10.71135c0.40514,-1.08426 1.24179,-3.60444 1.41963,-4.08359c0.25247,-0.15114 2.12808,-0.35285 2.50875,-0.2771l0.12683,0.25225l-3.29524,4.43593l-0.75997,-0.32749l0,0zm-1.72362,6.52835c0,3.12511 1.14012,5.54486 2.91458,5.54486c1.19095,0 2.30643,-0.8063 2.30643,-4.43609c0,-3.27694 -1.01381,-5.39388 -2.86426,-5.39388c-1.21663,0 -2.35675,1.41106 -2.35675,4.28511l0,0zm8.38873,0.42843c0,4.05839 -2.93973,6.04903 -5.75315,6.04903c-3.80206,0 -5.8045,-2.82281 -5.8045,-5.59559c0,-4.08324 3.21907,-6.09958 5.90634,-6.09958c3.37124,0 5.65131,2.59609 5.65131,5.64614l0,0z"/>
       <path fill="white" id="Fill-8" d="m139.90216,15.7774c0,1.84017 0.70981,3.25175 1.97728,3.25175c1.0138,0 1.72362,-1.00868 1.72362,-2.92392c0,-1.76392 -0.68397,-3.2012 -2.00245,-3.2012c-0.86198,0 -1.69845,0.98366 -1.69845,2.87337l0,0zm-0.12632,8.59576c-0.48166,0.42792 -0.78581,0.93192 -0.78581,1.53719c0,1.28494 1.31779,2.41992 3.29455,2.41992c2.07862,0 3.24441,-1.10944 3.24441,-2.52102c0,-0.90707 -0.55782,-1.46162 -1.31779,-1.71354c-0.65949,-0.2017 -1.26764,-0.25225 -2.28144,-0.25225c-1.21663,0 -1.77394,0.15166 -2.15392,0.5297l0,0zm8.36425,-11.84717c-0.17767,0.4286 -0.65949,1.18451 -1.0898,1.46162l-1.47046,-0.09992c0.43099,0.5292 0.70981,1.18384 0.70981,2.04086c0,2.67217 -2.33227,3.98264 -4.68903,3.98264c-0.43081,0 -0.86198,-0.07557 -1.26763,-0.12544c-0.25315,0.20119 -0.50699,0.52902 -0.50699,0.83132c0,0.42859 0.4315,0.95813 1.62195,0.9326c0.86249,0 1.64762,-0.02554 2.4591,-0.02554c1.57163,0 3.80155,0.45413 3.80155,3.02452c0,2.79847 -3.21856,5.14214 -6.5898,5.14214c-3.09224,0 -4.58787,-1.66281 -4.61303,-3.07456c0,-0.57958 0.27882,-1.00817 0.73497,-1.41175c0.5835,-0.504 1.34364,-1.00817 1.95161,-1.43677c-0.98813,-0.32715 -1.54578,-0.83183 -1.87561,-1.38655c-0.25383,-0.37788 -0.37998,-0.93209 -0.35482,-1.23507c1.21646,-0.45345 2.02812,-1.13362 2.45894,-1.61277c-1.3943,-0.47915 -2.38243,-1.73958 -2.38243,-3.35235c0,-2.84851 2.61059,-4.15898 4.76502,-4.15898l0.02516,0c0.96297,0 1.72311,0.22672 2.61059,0.65515c1.26747,-0.04987 2.58543,-0.2017 3.57407,-0.32732l0.12683,0.17617l0,0z"/>
       <path fill="white" id="Fill-9" d="m149.96418,8.61943c0,-0.90758 0.73566,-1.61345 1.62315,-1.61345c0.88697,0 1.59627,0.70587 1.59627,1.61345c0,0.85651 -0.7093,1.58792 -1.62195,1.58792c-0.86181,0 -1.59747,-0.73141 -1.59747,-1.58792l0,0zm-1.29194,14.79543l0,-0.75575c1.52062,-0.15183 1.67261,-0.27795 1.67261,-2.04204l0,-5.06639c0,-1.61294 -0.12615,-1.71405 -1.46978,-1.91524l0,-0.70588c1.44479,-0.17668 2.96541,-0.50468 4.25821,-0.93259l0,8.6201c0,1.71404 0.12683,1.86536 1.69777,2.04204l0,0.75575l-6.15881,0l0,0z"/>
       <path fill="white" id="Fill-10" d="m165.4509,21.04566c-1.13995,1.56222 -2.81342,2.6715 -4.33335,2.6715c-3.37124,0 -5.3487,-2.59592 -5.3487,-5.31814c0,-1.89022 0.91265,-3.62996 2.56027,-4.86486c1.52079,-1.13379 3.14257,-1.51217 4.10622,-1.51217l0.02516,0c0.9378,0 1.77445,0.30281 2.20527,0.63013c0.35499,0.27744 0.45615,0.52919 0.45615,0.88204c-0.02516,0.65583 -0.63399,1.2606 -1.0138,1.2606c-0.152,0 -0.30416,-0.07558 -0.53283,-0.27796c-0.93781,-0.83132 -1.77377,-1.20936 -2.55959,-1.20936c-1.24179,0 -2.48358,1.1343 -2.48358,3.80596c0,3.40256 2.40759,4.51201 3.62422,4.51201c1.06481,0 1.82477,-0.27694 2.83858,-1.15949l0.45598,0.57974"/>
       <path fill="white" id="Fill-11" d="m169.3548,17.2397c0,3.12511 1.1408,5.54486 2.91457,5.54486c1.1913,0 2.30729,-0.8063 2.30729,-4.43609c0,-3.27694 -1.01329,-5.39388 -2.86357,-5.39388c-1.21749,0 -2.35829,1.41106 -2.35829,4.28511l0,0zm8.3901,0.42843c0,4.05839 -2.9406,6.04903 -5.75453,6.04903c-3.80137,0 -5.80381,-2.82281 -5.80381,-5.59559c0,-4.08324 3.21924,-6.09958 5.90651,-6.09958c3.37021,0 5.65183,2.59609 5.65183,5.64614l0,0z"/>
       <path fill="white" id="Fill-12" d="m64.94721,36.99242c-0.48149,-0.88188 -1.29246,-1.28545 -2.12876,-1.28545c-0.81132,0 -2.81342,0.75643 -2.81342,4.53754c0,3.05005 1.82495,4.33499 3.16824,4.33499c0.63347,0 1.1913,-0.20171 1.77394,-0.57975l0,-7.00733l0,0zm4.61303,8.4184c-0.60797,0.10127 -2.78774,0.40357 -4.61303,0.984l0,-1.53856l-1.54595,0.95813c-0.76048,0.45345 -1.24162,0.55473 -1.52062,0.55473c-2.1291,0 -5.01852,-1.78962 -5.01852,-5.46946c0,-3.42877 3.04141,-6.22639 6.81813,-6.22639c0.2535,0 0.68432,0.05123 1.26696,0.17668l0,-3.22622c0,-1.46179 -0.152,-1.58792 -1.79927,-1.73924l0,-0.73072c1.52078,-0.17686 3.42173,-0.52903 4.58752,-0.88205l0,14.71986c0,1.38621 0.15234,1.48681 1.16648,1.61294l0.6583,0.07608l0,0.73022l0,0z"/>
       <path fill="white" id="Fill-13" d="m73.44873,38.78204c1.16597,0 2.28144,-0.02485 3.4724,-0.07558c0.40566,0 0.55782,-0.10042 0.55782,-0.504c0,-1.28562 -0.65898,-2.54553 -1.79961,-2.54553c-1.03896,0 -2.00244,1.13379 -2.23061,3.12511l0,0zm6.69165,4.94043c-1.54647,2.14265 -3.44655,2.64665 -4.41021,2.64665c-3.26939,0 -5.11984,-2.49533 -5.11984,-5.39389c0,-1.86519 0.7348,-3.42809 1.79944,-4.48681c1.08997,-1.13379 2.48376,-1.81515 3.80223,-1.81515l0.02516,0c2.2556,0 4.00437,1.94128 4.00437,3.95762c0,0.50417 -0.15199,0.78213 -0.68414,0.88204c-0.43082,0.05073 -3.5489,0.3023 -6.2348,0.40358c0.07599,2.97447 1.74878,4.36069 3.54771,4.36069c0.98932,0 1.9516,-0.3537 2.83909,-1.15949l0.43099,0.60476l0,0z"/>
       <path fill="white" id="Fill-14" d="m100.9751,46.06682l0,-0.80698c1.95161,-0.20119 2.07895,-0.37804 2.05328,-2.82299l-0.05015,-9.90555l-0.12701,0l-5.80467,13.35867l-0.63296,0l-5.34869,-13.08139l-0.10116,0l-0.32915,6.80563c-0.10167,2.09192 -0.10167,3.22622 -0.02567,4.10826c0.07599,1.15933 0.60797,1.36103 2.30642,1.51235l0,0.832l-6.03266,0l0,-0.832c1.4448,-0.1263 1.92662,-0.5292 2.10429,-1.4623c0.15216,-0.83149 0.32846,-2.06639 0.5063,-4.71303l0.38016,-5.06657c0.22867,-3.02451 0.05083,-3.30196 -2.15393,-3.50366l0,-0.80647l4.84102,0l5.19602,11.59491l5.29751,-11.59491l4.81535,0l0,0.80647c-2.1036,0.2017 -2.20459,0.35353 -2.15393,2.62162l0.22817,9.32597c0.07599,2.44495 0.17766,2.6218 2.22992,2.82299l0,0.80698l-7.19846,0"/>
       <path fill="white" id="Fill-15" d="m112.16869,39.89081c0,3.12579 1.1408,5.54571 2.91525,5.54571c1.19147,0 2.30712,-0.80647 2.30712,-4.43626c0,-3.27695 -1.01449,-5.39389 -2.86494,-5.39389c-1.21663,0 -2.35743,1.41107 -2.35743,4.28444l0,0zm8.39009,0.4291c0,4.05788 -2.94042,6.04921 -5.75383,6.04921c-3.80206,0 -5.80399,-2.82282 -5.80399,-5.59559c0,-4.08341 3.21856,-6.10026 5.90515,-6.10026c3.37123,0 5.65267,2.5966 5.65267,5.64664l0,0z"/>
       <path fill="white" id="Fill-16" d="m128.68769,46.06682l0,-0.7566c1.21594,-0.15098 1.36794,-0.27711 1.36794,-2.04119l0,-4.25959c0,-1.79013 -0.75997,-2.54604 -1.95144,-2.54604c-0.78581,0 -1.49563,0.40357 -2.20476,0.95762l0,6.02469c0,1.61294 0.15182,1.71353 1.34278,1.86451l0,0.7566l-5.87998,0l0,-0.7566c1.62246,-0.2017 1.74878,-0.27711 1.74878,-1.94077l0,-5.21703c0,-1.53787 -0.12632,-1.63847 -1.41946,-1.89073l0,-0.65532c1.34346,-0.2017 2.83909,-0.5297 4.20788,-0.98315l0,1.91575c0.50682,-0.35302 1.03879,-0.75643 1.62246,-1.1343c0.73412,-0.47915 1.29195,-0.7314 2.02692,-0.7314c2.02829,0 3.29576,1.46213 3.29576,3.95762l0,4.81482c0,1.61294 0.15216,1.68851 1.52027,1.86451l0,0.7566l-5.67715,0"/>
       <path fill="white" id="Fill-17" d="m140.07315,46.06682c-0.45666,0.20102 -0.83665,0.3023 -1.03896,0.3023c-1.82546,0 -2.88942,-0.9326 -2.88942,-3.1258l0,-7.13278l-1.64762,0l-0.12751,-0.27744l0.70981,-0.85703l1.06532,0l0,-1.84017l2.43292,-1.86519l0.35483,0.12612l0,3.57924l2.61041,0c0.279,0.27745 0.22868,0.9326 -0.15199,1.13447l-2.45842,0l0,6.30146c0,1.99133 0.88748,2.2686 1.4453,2.2686c0.5063,0 0.98813,-0.15115 1.39379,-0.32783l0.22799,0.78145l-1.92645,0.9326"/>
       <path fill="white" id="Fill-18" d="m145.3782,38.78204c1.16579,0 2.28144,-0.02485 3.47239,-0.07558c0.40515,0 0.55714,-0.10042 0.55714,-0.504c0,-1.28562 -0.6583,-2.54553 -1.79961,-2.54553c-1.03897,0 -2.00193,1.13379 -2.22992,3.12511l0,0zm6.69095,4.94043c-1.54578,2.14265 -3.44655,2.64665 -4.40951,2.64665c-3.27009,0 -5.12054,-2.49533 -5.12054,-5.39389c0,-1.86519 0.73549,-3.42809 1.79962,-4.48681c1.08963,-1.13379 2.48358,-1.81515 3.80206,-1.81515l0.02516,0c2.25628,0 4.00488,1.94128 4.00488,3.95762c0,0.50417 -0.15199,0.78213 -0.68465,0.88204c-0.43082,0.05073 -3.54822,0.3023 -6.23481,0.40358c0.076,2.97447 1.74878,4.36069 3.54823,4.36069c0.98812,0 1.95177,-0.3537 2.83926,-1.15949l0.4303,0.60476l0,0z"/>
       <path fill="white" id="Fill-19" d="m157.44848,37.34544c0.86181,-1.48732 1.90129,-2.67217 2.93957,-2.67217c0.96365,0 1.62246,0.70587 1.62246,1.46213c0,0.75642 -0.48114,1.38672 -1.08912,1.61345c-0.32983,0.15132 -0.58366,0.07557 -0.73566,-0.07541c-0.43082,-0.35353 -0.73549,-0.50468 -1.14063,-0.50468c-0.55782,0 -1.16648,0.45396 -1.64694,1.61328l0,4.66367c0,1.5874 0.12615,1.71353 2.07793,1.86451l0,0.7566l-6.53897,0l0,-0.7566c1.44411,-0.15098 1.67261,-0.27711 1.67261,-1.86451l0,-5.3944c0,-1.43676 -0.1525,-1.53736 -1.44462,-1.78962l0,-0.65532c1.41895,-0.17668 2.78757,-0.47898 4.23305,-0.98315l0,2.72222l0.05032,0"/>
       <path fill="white" id="Fill-20" d="m167.40268,37.34544c0.86112,-1.48732 1.9006,-2.67217 2.93973,-2.67217c0.96348,0 1.62229,0.70587 1.62229,1.46213c0,0.75642 -0.48165,1.38672 -1.0898,1.61345c-0.32966,0.15132 -0.58281,0.07557 -0.7348,-0.07541c-0.43168,-0.35353 -0.73567,-0.50468 -1.14132,-0.50468c-0.55783,0 -1.16597,0.45396 -1.64711,1.61328l0,4.66367c0,1.5874 0.12632,1.71353 2.07861,1.86451l0,0.7566l-6.53965,0l0,-0.7566c1.44479,-0.15098 1.67278,-0.27711 1.67278,-1.86451l0,-5.3944c0,-1.43676 -0.15199,-1.53736 -1.44479,-1.78962l0,-0.65532c1.41895,-0.17668 2.78791,-0.47898 4.23305,-0.98315l0,2.72222l0.05101,0"/>
       <path fill="white" id="Fill-21" d="m175.1706,38.78204c1.16562,0 2.28161,-0.02485 3.47291,-0.07558c0.40565,0 0.55799,-0.10042 0.55799,-0.504c0,-1.28562 -0.65898,-2.54553 -1.80064,-2.54553c-1.03897,0 -2.00091,1.13379 -2.23026,3.12511l0,0zm6.69249,4.94043c-1.54732,2.14265 -3.44723,2.64665 -4.41088,2.64665c-3.26923,0 -5.11951,-2.49533 -5.11951,-5.39389c0,-1.86519 0.73429,-3.42809 1.79893,-4.48681c1.09031,-1.13379 2.48359,-1.81515 3.80326,-1.81515l0.02396,0c2.25594,0 4.00523,1.94128 4.00523,3.95762c0,0.50417 -0.15234,0.78213 -0.68466,0.88204c-0.43133,0.05073 -3.54822,0.3023 -6.23377,0.40358c0.07531,2.97447 1.74758,4.36069 3.54651,4.36069c0.98932,0 1.95126,-0.3537 2.8396,-1.15949l0.43133,0.60476l0,0z"/>
       <path fill="white" id="Fill-23" d="m194.51037,35.70697c-1.26661,0.22672 -1.49426,0.45413 -2.15323,1.84017c-0.63502,1.33567 -1.44634,3.42809 -3.04158,7.18351c-1.69966,4.03268 -2.2063,5.57005 -2.63763,6.98163c-0.15063,0.52987 -0.48097,0.656 -0.88663,0.656c-0.70862,0 -1.6466,-0.68017 -1.6466,-1.4623c0,-0.4029 0.1763,-0.62962 0.65898,-0.95762c0.93798,-0.50349 1.49426,-1.05805 2.00262,-1.9663c0.35431,-0.60477 0.50664,-0.98264 0.60763,-1.28511c0.12666,-0.40341 0.07702,-0.75626 -0.07702,-1.18486c-1.21527,-3.35251 -2.50755,-6.7549 -3.09122,-8.1161c-0.48268,-1.18434 -0.75997,-1.48732 -2.02829,-1.68902l0,-0.7309l5.85551,0l0,0.7309c-1.11599,0.22672 -1.29229,0.40357 -0.98933,1.2606l2.05397,5.87286c0.6333,-1.53788 1.57128,-4.23439 2.05225,-5.72171c0.279,-0.88273 0.07702,-1.18503 -1.24094,-1.41175l0,-0.7309l4.56151,0l0,0.7309"/>
       <path fill="white" id="Fill-25" d="m56.49652,6.69568c-0.0659,1.49226 -0.18606,2.8509 -0.27215,4.3309l0.85291,0c0.30193,-1.22826 0.57836,-2.04749 0.95457,-2.48324c0.35226,-0.48766 0.82809,-0.71693 2.88771,-0.71693l1.12968,0l0,12.26164c0,2.12426 -0.25196,2.32834 -2.4105,2.50894l0,0.81787l7.83228,0l0,-0.81787c-2.28435,-0.1806 -2.50961,-0.38468 -2.50961,-2.50894l0,-12.26164l1.35511,0c1.63256,0 2.18422,0.1537 2.63694,0.66502c0.37622,0.4371 0.67661,1.22894 0.9782,2.50962l0.82878,-0.05123c-0.10424,-1.3246 -0.20848,-2.84171 -0.24032,-4.25414l-14.0236,0"/>
      </g>
     </g>
    </g>
   </g>
  </g>
 </g>

</svg>
